<?xml version="1.0" encoding="iso-8859-1"?>
<!-- Uploaded to: SVG Repo, www.svgrepo.com, Generator: SVG Repo Mixer Tools -->
<svg height="800px" width="800px" version="1.1" id="Layer_1" xmlns="http://www.w3.org/2000/svg" xmlns:xlink="http://www.w3.org/1999/xlink" 
	 viewBox="0 0 512 512" xml:space="preserve">
<g transform="translate(1 1)">
	<g>
		<path style="fill:#FFDD09;" d="M502.467,255c0,136.533-110.933,247.467-247.467,247.467S7.533,391.533,7.533,255
			S118.467,7.533,255,7.533S502.467,118.467,502.467,255"/>
		<path style="fill:#FFDD09;" d="M306.2,12.653C274.627,74.093,255,160.28,255,255s19.627,180.053,51.2,242.347
			C418.84,473.453,502.467,373.613,502.467,255S418.84,36.547,306.2,12.653"/>
	</g>
	<path style="fill:#1CD759;" d="M255,255c0-54.613,6.827-106.667,18.773-152.747c-6.827,0-12.8-0.853-18.773-0.853
		c-84.48,0-153.6,69.12-153.6,153.6S170.52,408.6,255,408.6c5.973,0,11.947-0.853,18.773-0.853C261.827,361.667,255,309.613,255,255
		"/>
	<path style="fill:#FD9808;" d="M255,7.533c-4.267,0-8.533,0-12.8,0C372.76,14.36,476.867,122.733,476.867,255
		S372.76,495.64,242.2,502.467c4.267,0,8.533,0,12.8,0c136.533,0,247.467-110.933,247.467-247.467S391.533,7.533,255,7.533"/>
	<path style="fill:#FFFFFF;" d="M255,7.533c4.267,0,8.533,0,12.8,0C137.24,14.36,33.133,122.733,33.133,255
		S137.24,495.64,267.8,502.467c-4.267,0-8.533,0-12.8,0C118.467,502.467,7.533,391.533,7.533,255S118.467,7.533,255,7.533"/>
	<path d="M178.2,237.933c0,5.12-3.413,8.533-8.533,8.533c-5.12,0-8.533-3.413-8.533-8.533c0-5.12,3.413-8.533,8.533-8.533
		C174.787,229.4,178.2,232.813,178.2,237.933"/>
	<path d="M255,511C114.2,511-1,395.8-1,255S114.2-1,255-1s256,115.2,256,256S395.8,511,255,511z M255,16.067
		C123.587,16.067,16.067,123.587,16.067,255S123.587,493.933,255,493.933S493.933,386.413,493.933,255S386.413,16.067,255,16.067z"
		/>
	<path d="M306.2,505.88c-3.413,0-5.973-1.707-7.68-4.267c-33.28-66.56-52.053-153.6-52.053-246.613S265.24,74.947,299.373,9.24
		c1.707-3.413,5.973-5.12,9.387-4.267C425.667,29.72,511,134.68,511,255s-85.333,225.28-202.24,250.027
		C307.907,505.88,307.053,505.88,306.2,505.88z M311.32,22.893C280.6,85.187,263.533,167.96,263.533,255
		S280.6,424.813,311.32,487.107C417.133,461.507,493.933,365.08,493.933,255S417.133,48.493,311.32,22.893z"/>
	<path d="M255,417.133C165.4,417.133,92.867,344.6,92.867,255S165.4,92.867,255,92.867c5.973,0,11.947,0,19.627,0.853
		c2.56,0,4.267,1.707,5.973,3.413c1.707,1.707,1.707,4.267,0.853,6.827c-11.947,47.787-17.92,98.133-17.92,151.04
		s5.973,103.253,17.92,150.187c0.853,2.56,0,5.12-0.853,6.827c-1.707,1.707-3.413,3.413-5.973,3.413
		C266.947,417.133,260.973,417.133,255,417.133z M255,109.933c-80.213,0-145.067,64.853-145.067,145.067
		S174.787,400.067,255,400.067c2.56,0,5.12,0,7.68,0C251.587,354.84,246.467,306.2,246.467,255s5.12-98.987,16.213-145.067
		C260.12,109.933,257.56,109.933,255,109.933z"/>
	<path d="M161.133,220.867c-5.12,0-8.533-3.413-8.533-8.533c0-33.28,26.453-59.733,59.733-59.733c5.12,0,8.533,3.413,8.533,8.533
		c0,5.12-3.413,8.533-8.533,8.533c-23.893,0-42.667,18.773-42.667,42.667C169.667,217.453,166.253,220.867,161.133,220.867z"/>
</g>
</svg>
